<?xml version="1.0" encoding="UTF-8"?><svg id="a" xmlns="http://www.w3.org/2000/svg" width="30" height="24.36661" viewBox="0 0 30 24.36661"><defs><style>.b{fill:#de669c;fill-rule:evenodd;}</style></defs><path class="b" d="M14.80107,7.494c-1.19362-6.28648,6.36605-10.02652,10.82229-5.49071,0,0,1.98937-.55704,3.74006-1.6711,0,0-.63661,2.14855-2.78516,3.50132,0,0,2.38727-.31828,3.42174-.9549,0,0-1.03447,2.14855-2.94429,2.94431,1.03449,14.40317-14.48276,23.15649-27.05571,15.99469,0,0,6.2069,.31832,8.8329-2.70557,0,0-3.81965,.3183-5.72945-4.29709,0,0,1.43237,.55704,2.86471-.15915,0,0-4.45621-.7162-4.8541-6.04772,0,0,1.43237,1.11403,3.02388,.71616,0,0-4.93369-2.94431-2.14855-8.27586,0,0,5.25201,6.68435,12.81168,6.44561h0Z"/></svg>