<?xml version="1.0" encoding="UTF-8"?><svg id="a" xmlns="http://www.w3.org/2000/svg" width="30" height="29.92837" viewBox="0 0 30 29.92837"><defs><style>.b{fill:#de669c;fill-rule:evenodd;}</style></defs><path class="b" d="M8.0907,0h13.81861c4.43913,0,8.09069,3.65155,8.09069,8.09068v13.74701c0,4.43914-3.65156,8.09068-8.09069,8.09068H8.0907C3.65157,29.92837,0,26.27683,0,21.83769V8.09068C0,3.65155,3.65157,0,8.0907,0h0Zm14.96419,5.22674h0c.93079,0,1.7184,.78758,1.7184,1.71836h0c0,.9308-.78761,1.71838-1.7184,1.71838h0c-1.00239,0-1.71838-.78758-1.71838-1.71838h0c0-.93078,.71599-1.71836,1.71838-1.71836h0Zm-8.09068,1.57516h.07159c4.43914,0,8.16231,3.72315,8.16231,8.16229h0c0,4.51074-3.72317,8.16227-8.16231,8.16227h-.07159c-4.43914,0-8.0907-3.65153-8.0907-8.16227h0c0-4.43914,3.65156-8.16229,8.0907-8.16229h0Zm0,2.79237h.07159c2.93557,0,5.36991,2.43438,5.36991,5.36991h0c0,3.00716-2.43434,5.44152-5.36991,5.44152h-.07159c-2.93557,0-5.36994-2.43437-5.36994-5.44152h0c0-2.93554,2.43437-5.36991,5.36994-5.36991h0ZM8.16229,2.57757h13.67542c3.07876,0,5.58473,2.50595,5.58473,5.58472v13.60381c0,3.07876-2.50597,5.58473-5.58473,5.58473H8.16229c-3.07874,0-5.5847-2.50597-5.5847-5.58473V8.16229c0-3.07877,2.50595-5.58472,5.5847-5.58472h0Z"/></svg>